<svg xmlns="http://www.w3.org/2000/svg" xmlns:xlink="http://www.w3.org/1999/xlink" xmlns:inkscape="http://www.inkscape.org/namespaces/inkscape" version="1.1" width="792" height="612" viewBox="0 0 792 612">
<defs>
<clipPath id="clip_1">
<path transform="matrix(1,0,0,-1,0,612)" d="M0 612H792V0H0Z"></path>
</clipPath>
</defs>
<g inkscape:groupmode="layer" inkscape:label="Layer 1">
<g clip-path="url(#clip_1)">
<path transform="matrix(1,0,0,-1,694.4131,363.0625)" d="M0 0C-47.127 20.935-109.55 13.818-160.499 12.064-180.925 11.361-201.351 10.622-221.791 10.513-250.961 10.357-280.458 12.786-309.29 17.4-336.723 21.791-369.81 30.337-392.316 47.223-399.257 52.431-405.798 58.94-409.812 66.652-412.904 72.59-414.465 79.349-413.193 85.984-409.333 106.117-383.665 117.75-366.114 123.531L-365.759 123.647-361.171 117.661C-362.061 117.383-362.948 117.099-363.832 116.808-378.354 112.024-403.665 101.577-406.907 84.668-414.17 46.79-331.801 28.185-308.136 24.397-279.706 19.847-250.594 18.799-221.831 18.953-201.461 19.062-181.104 19.8-160.75 20.5-141.229 21.173-121.673 21.834-102.138 21.709-69.824 21.505-32.539 19.319-2.725 6.076 2.486 3.76 5.212-2.315 0 0M-363.451 109.83C-360.288 111.319-356.951 112.596-353.67 113.684L-348.916 108.348C-353.645 106.917-358.291 105.172-362.485 103.02-385.799 91.057-379.095 79.273-367.215 71.624-323.946 43.761-227.492 44.353-182.458 67.266-173.343 71.904-163.617 81.327-163.089 89.727-162.192 103.979-184.931 113.845-197.633 118.137L-192.76 123.967C-189.372 122.765-186.054 121.443-182.857 119.981-171.8 114.926-155.014 103.471-155.906 89.287-156.636 77.704-169.023 66.981-180.475 61.618-229.223 38.787-323.346 34.078-369.838 65.351-385.834 76.11-396.144 94.432-363.451 109.83M-203.577 111.025C-192.358 106.842-184.33 101.13-183.314 93.321-182.69 88.524-186.407 84.403-189.905 81.677-195.212 77.543-202.301 74.593-208.653 72.524-241.246 61.909-291.774 59.94-325.266 67.41-330.084 68.485-345.282 71.677-354.805 78.081-362.3 83.122-364.781 88.993-359.98 95.777-356.979 100.017-352.125 99.228-355.125 94.988-357.667 91.392-357.708 87.169-352.808 83.936-344.36 78.364-327.404 74.586-323.842 73.791-291.497 66.577-242.154 68.488-210.677 78.741-205.099 80.557-198.589 83.2-193.923 86.834-192.637 87.836-189.549 90.565-189.798 92.479-190.57 98.422-199.743 102.831-208.063 105.658Z" fill="#8d6e63" fill-rule="evenodd"></path>
<path transform="matrix(1,0,0,-1,521.9102,178.58789)" d="M0 0C.822-3.774 .502-10.158 .042-13.865-6.241-64.535-43.621-104.645-95.559-107.286-110.579-108.05-131.131-106.853-145.158-101.406-181.003-87.487-208.146-52.334-212.518-10.205-213.99 3.985-209.993 11.218-195.462 19.058-172.689 31.348-132.019 35.41-110.362 35.893-108.831 35.926-102.761 35.943-101.433 35.943-96.305 35.943-86.267 33.155-96.413 31.611-123.533 31.611-175.561 24.831-198.441 7.695-201.288 5.562-204.655 2.344-205.094-1.412L-205.035-2.169C-204.984-2.83-204.932-3.491-204.88-4.151-204-7.402-201.051-10.2-198.441-12.154-192.461-16.633-184.538-19.727-177.449-21.973-167.043-25.27-156.194-27.368-145.387-28.816-132.299-30.57-119.073-31.344-105.872-31.344-94.282-31.344-82.634-30.75-71.118-29.43-58.747-28.013-46.18-25.738-34.296-21.973-27.207-19.727-19.285-16.633-13.304-12.154 1.078-1.383-10.894 4.854-22.517 8.686-25.41 9.639-28.166 10.387-30.256 10.902-38.947 13.047-47.854 14.404-56.746 15.389-66.904 16.514-77.121 17.119-87.339 17.306-91.085 17.374-94.833 17.383-98.579 17.332-103.906 17.259-109.232 17.008-114.543 16.593-125.44 15.742-136.518 14.278-147.108 11.521-152.633 10.082-162.359 7.096-166.17 2.742-166.829 1.989-167.407 1.051-167.478 .03-167.757-4.031-160.382-7.455-157.29-8.646-152.021-10.677-146.292-11.842-140.715-12.641-132.342-13.84-123.838-14.225-115.386-14.225-107.274-14.225-99.149-13.917-91.078-13.09-85.21-12.489-79.312-11.632-73.589-10.179-58.785-6.419-65.706-.477-73.991 1.736-90.287 6.087-116.673 4.353-120.679 4.21-125.804 4.029-124.483 6.53-117.061 7.573-108.295 8.805-99.47 8.896-90.688 8.427-84.408 8.09-78.087 7.514-71.909 6.301-66.369 5.215-54.896 2.534-54.698-4.608-54.496-11.901-66.32-15.392-71.904-16.81-77.953-18.347-84.178-19.261-90.381-19.896-98.685-20.747-107.041-21.066-115.386-21.066-124.163-21.066-132.989-20.659-141.685-19.414-147.782-18.541-153.991-17.25-159.75-15.031-166.205-12.542-174.857-7.551-174.304 .5-174.127 3.054-172.988 5.341-171.319 7.249-161.546 18.412-129.499 22.288-115.076 23.414-109.618 23.84-104.147 24.098-98.674 24.173-94.854 24.225-91.033 24.216-87.215 24.146-76.786 23.957-66.36 23.337-55.993 22.189-46.801 21.171-37.601 19.762-28.616 17.545-20.786 15.612-9.215 12.147-3.381 6.01 4.271 11.592 13.35 15.548 22.897 15.941 59.732 17.458 67.302-27.35 37.875-51.45 37.787-56.207 38.275-61.017 39.797-65.228 41.32-69.442 44.774-73.844 49.1-75.477 64.055-81.124 88.463-68.269 97.038-56.635 99.904-52.746 102.794-56.443 99.811-60.243 80.401-84.966 31.484-96.93 31.873-55.726 27.65-58.305 23.158-60.184 18.547-61.15 12.139-62.493 1.765-63.332-1.437-56.014-3.311-51.729-1.439-46.912 1.158-43.375 4.339-39.042 9.089-35.68 14.005-33.584 20.417-30.852 30.205-28.153 35.778-33.937 37.73-35.961 38.634-38.549 38.877-41.251 54.475-25.39 49.304 10.183 23.18 9.105 14.744 8.757 6.679 5.021 0 0M-198.921-33.282C-164.675-62.906-100.063-84.593-46.808-81.756-42.198-79.188-35.445-72.552-32.645-69.677-65.947-69.55-97.784-66.795-129.992-58.144-154.774-51.485-183.854-41.64-202.075-22.445-201.211-26.108-200.162-29.727-198.921-33.282M-53.592-63.562C-33.487-57.744-20.572-48.909-14.283-39.416-11.766-33.581-9.738-24.954-8.849-20.322-28.961-43.75-56.571-55.431-86.558-60.033-78.844-61.864-64.88-62.509-53.592-63.562M-20.2-52.037C-26.277-57.056-32.972-61.045-40.278-64.008-36.268-64.097-32.256-64.115-28.245-64.058-28.172-63.964-28.099-63.872-28.025-63.779-25.114-60.068-22.505-56.142-20.2-52.037M-54.989-86.78C-64.755-87.108-74.631-86.452-84.291-85.278-100.815-83.271-117.224-79.608-133.107-74.644-153.743-68.192-176.995-56.22-194.881-43.595-192.524-49.226-186.727-58.328-183.084-62.465-149.054-82.87-108.686-93.964-68.899-92.695-65.905-91.456-57.655-88.294-54.989-86.78M-80.09-96.899C-113.218-96.746-143.798-87.638-173.523-73.188-156.173-86.498-137.883-95.877-115.706-98.39-105.467-99.55-91.868-99.809-80.09-96.899M-16.311-22.697C-19.255-23.908-29.217-27.54-32.229-28.495-42.736-31.823-53.664-33.981-64.574-35.479-77.736-41.404-91.36-44.949-105.67-46.73-116.884-48.125-132.09-48.294-143.399-48.064-139.646-49.234-135.868-50.324-132.072-51.343-126.662-52.797-112.347-55.843-102.534-56.927-70.559-55.813-30.327-37.561-16.311-22.697M-78.854-36.575C-101.501-38.553-123.698-38.626-146.295-35.598-163.562-33.284-178.467-28.958-194.417-22.431-185.152-29.333-172.733-35.366-162.145-39.946-161.848-40.074-158.562-41.551-158.265-41.679-133.579-43.516-106.909-43.318-78.854-36.575M32.343-46.985C33.043-44.181 32.515-39.935 30.396-38.31 27.187-35.917 20.052-38.445 16.687-39.879 12.914-41.487 9.118-44.093 6.673-47.425 5.685-48.77 4.084-51.564 4.832-53.272 6.161-56.311 14.636-54.979 17.144-54.454 22.301-53.373 28.101-50.068 32.343-46.985" fill="#10b981" fill-rule="evenodd"></path>
<path transform="matrix(1,0,0,-1,520.6426,394.46479)" d="M0 0C-2.021 3.298 .294 11.215 6.541 11.215 12.806 11.215 14.385 5.817 10.984 1.07 8.078-2.986 3.66-4.802 0 0M132.971-40.248C134.183-39.712 135.344-39.076 136.454-38.346 137.892-37.384 139.258-36.297 140.472-35.062 141.594-33.918 142.593-32.674 143.44-31.313 144.189-30.111 144.746-28.831 145.075-27.451 145.261-26.67 145.455-25.456 144.924-24.759L144.911-24.742 144.898-24.725C144.502-24.155 143.987-23.93 143.299-23.93 142.095-23.93 140.999-24.267 140.001-24.925 138.871-25.693 137.925-26.649 137.109-27.738 136.216-28.949 135.485-30.291 134.891-31.67 134.282-33.092 133.794-34.557 133.436-36.063 133.22-36.972 133.081-37.896 133.026-38.829 132.999-39.301 132.979-39.774 132.971-40.248M127.491-29.827C127.794-29.132 128.125-28.447 128.485-27.775 129.641-25.568 131.071-23.503 132.816-21.724 134.427-20.06 136.275-18.654 138.36-17.632 140.354-16.668 142.466-16.156 144.679-16.156 145.99-16.156 147.249-16.42 148.453-16.966 149.639-17.537 150.659-18.325 151.453-19.367 152.312-20.452 152.828-21.713 153.114-23.069 153.419-24.668 153.275-26.336 152.901-27.908 152.37-30.141 151.476-32.233 150.27-34.186 149.042-36.154 147.553-37.94 145.892-39.562 144.134-41.254 142.206-42.768 140.162-44.102 138.355-45.266 136.477-46.311 134.53-47.218 135.158-48.152 135.979-48.92 136.963-49.519 138.557-50.472 140.582-50.729 142.407-50.729 144.84-50.729 147.136-50.129 149.297-49.012 151.688-47.775 153.893-46.2 155.886-44.393 158.075-42.408 160.089-40.235 161.924-37.92 163.783-35.57 165.573-33.175 167.258-30.711 167.704-30.021 168.29-29.47 169.021-29.08 169.664-28.748 170.388-28.545 171.114-28.545 172.235-28.545 173.221-28.965 173.856-29.906L173.872-29.93 173.887-29.954C174.401-30.817 174.569-31.742 174.335-32.727 174.262-33.03 174.156-33.341 174.012-33.617L174.004-33.634 173.994-33.65C173.86-33.884 173.719-34.106 173.567-34.312 169.098-40.75 163.709-47.453 157.469-52.26 152.685-55.966 147.224-58.487 141.086-58.607 138.021-58.607 134.852-58.094 132.194-56.476 129.977-55.108 128.147-53.303 126.94-50.988 125.835-48.918 125.227-46.662 125.006-44.34 124.256-45.148 123.496-45.948 122.731-46.738 120.896-48.631 118.938-50.394 116.849-51.992 114.852-53.563 112.688-54.92 110.387-55.999 108.237-57.007 105.953-57.602 103.572-57.602 101.614-57.602 99.426-57.329 97.767-56.226 96.361-55.326 95.336-54.108 94.729-52.552 94.104-50.942 93.93-49.188 94.026-47.467 94.162-45.561 94.469-43.657 94.911-41.799 95.483-39.396 96.166-37.017 96.982-34.68 97.554-33.099 98.149-31.417 98.539-29.78 98.709-29.069 98.963-27.919 98.874-27.181 98.85-26.952 98.777-26.505 98.631-26.292 98.563-26.233 98.462-26.155 98.398-26.15 98.215-26.134 97.989-26.101 97.807-26.101 96.501-26.101 94.987-27.152 94.021-27.944 92.062-29.526 90.259-31.42 88.6-33.311 86.411-35.782 84.344-38.373 82.332-40.984 80.1-43.937 77.86-46.88 75.621-49.827 74.566-51.211 73.5-52.59 72.43-53.972 71.692-54.895 70.884-55.855 69.991-56.633 69.351-57.229 68.635-57.765 67.841-58.119 67.151-58.441 66.398-58.607 65.637-58.607 64.118-58.607 62.73-58.071 62.019-56.662 61.342-55.321 61.411-53.759 61.75-52.335 62-51.285 62.286-50.239 62.575-49.201 62.971-47.783 63.361-46.364 63.747-44.944 64.189-43.324 64.655-41.709 65.14-40.101 65.615-38.527 66.072-36.947 66.505-35.361 66.875-34.007 67.247-32.653 67.63-31.303 67.881-30.413 68.134-29.515 68.348-28.615 68.475-28.081 68.702-26.924 68.417-26.4 68.298-26.177 68.153-26.021 67.887-26.021 67.367-26.021 66.741-26.301 66.282-26.547 65.344-27.023 64.258-28.049 63.509-28.787 62.228-30.021 61.016-31.428 59.854-32.771 58.18-34.729 56.53-36.705 54.906-38.706 53.127-40.9 51.382-43.124 49.652-45.361 48.094-47.361 46.578-49.396 45.09-51.453 43.864-53.114 42.245-55.051 40.482-56.15 39.296-56.91 37.919-57.522 36.485-57.522 34.948-57.522 33.438-57.08 32.619-55.684L32.609-55.666 32.6-55.648C31.885-54.31 31.946-52.766 32.288-51.328 32.507-50.406 32.832-49.425 33.093-48.507 33.684-46.429 34.259-44.345 34.844-42.264 35.58-39.641 36.312-37.017 37.06-34.397 37.804-31.788 38.532-29.177 39.268-26.566 39.577-25.457 39.817-24.327 39.95-23.193 39.315-23.82 38.629-24.576 38.378-24.85 35.915-27.572 33.596-31.137 31.582-34.209 31.458-34.395 31.322-34.572 31.174-34.738 30.151-36.098 29.11-37.442 28.055-38.773 26.626-40.595 25.124-42.36 23.584-44.091 21.9-45.962 20.154-47.774 18.341-49.512 16.534-51.288 14.606-52.924 12.562-54.42 10.674-55.8 8.67-57.011 6.535-57.964 4.603-58.839 2.571-59.375 .44-59.375-1.75-59.375-4-58.967-5.871-57.757-7.545-56.641-8.855-55.202-9.744-53.395-10.694-51.446-11.107-49.291-11.152-47.14-11.233-44.613-10.884-42.082-10.299-39.628-8.496-32.048-6.226-24.574-3.561-17.243-3.201-16.313-2.597-15.543-1.824-14.92-.98-14.237 .021-13.906 1.104-13.906 2.162-13.906 3.096-14.332 3.664-15.241 4.209-16.104 4.327-17.072 4.092-18.062 3.873-18.981 3.491-20.008 3.201-20.905 2.631-22.77 2.025-24.622 1.424-26.477 .691-28.732-.002-31.002-.669-33.278-1.307-35.453-1.893-37.643-2.416-39.848-2.879-41.791-3.335-44.172-3.154-46.183-3.062-47.349-2.802-48.644-2.159-49.631-1.712-50.292-1.145-50.829-.385-51.104 .354-51.372 1.132-51.522 1.919-51.522 3.434-51.522 5.009-50.839 6.299-50.091 8.314-48.939 10.207-47.424 11.931-45.869 14.226-43.827 16.358-41.558 18.369-39.231 20.645-36.648 22.785-33.936 24.847-31.179 24.904-31.064 24.965-30.952 25.027-30.843L25.043-30.815 25.061-30.789C27.835-26.58 31.131-21.882 34.787-18.387 36.792-16.484 39.711-14.197 42.621-14.197 43.843-14.197 45.029-14.469 46.016-15.22L46.035-15.233 46.053-15.249C46.869-15.936 47.443-16.786 47.74-17.799 48.083-18.854 48.172-19.968 48.099-21.058 48.05-22.191 47.896-23.311 47.635-24.414 46.62-28.676 45.523-32.927 44.264-37.123 43.642-39.193 43.021-41.263 42.396-43.332 42.734-42.891 43.071-42.449 43.41-42.009 45.2-39.673 47.025-37.362 48.859-35.056 50.656-32.827 52.48-30.619 54.338-28.441 55.732-26.808 57.203-25.093 58.77-23.625 60.472-22.021 62.449-20.509 64.604-19.574 66.18-18.881 67.961-18.327 69.698-18.327 71.036-18.327 72.424-18.561 73.523-19.348 74.521-20.023 75.247-20.952 75.695-22.07 76.165-23.242 76.36-24.51 76.375-25.778 76.363-27.228 76.164-28.67 75.828-30.079 75.564-31.19 75.259-32.294 74.934-33.388 74.506-34.831 74.083-36.276 73.664-37.723 73.241-39.188 72.818-40.652 72.399-42.119 72.641-41.802 72.881-41.485 73.122-41.168 74.546-39.274 75.989-37.392 77.442-35.513 78.827-33.771 80.2-32.016 81.602-30.29 82.73-28.882 83.918-27.511 85.18-26.226 87.4-23.918 90.256-21.262 93.176-19.878 94.975-19.024 97.11-18.247 99.126-18.247 100.703-18.247 102.43-18.491 103.79-19.366 104.89-20.108 105.722-21.076 106.24-22.31 106.708-23.497 106.887-24.789 106.86-26.062 106.828-27.335 106.675-28.603 106.381-29.842 105.926-31.753 105.329-33.629 104.637-35.467 103.819-37.646 103.188-39.913 102.65-42.177 102.401-43.222 102.201-44.277 102.052-45.342 101.933-46.186 101.88-47.078 102.021-47.916 102.125-48.49 102.369-48.955 102.799-49.349 103.362-49.791 104.253-49.881 104.939-49.881 106.251-49.881 107.535-49.491 108.711-48.918 110.207-48.213 111.611-47.293 112.911-46.281 114.387-45.112 115.787-43.86 117.094-42.506 118.436-41.116 119.752-39.697 120.993-38.217 122.121-36.869 123.219-35.501 124.276-34.105 125.082-33.012 125.91-31.911 126.669-30.774 126.91-30.426 127.184-30.109 127.491-29.827" fill="#8d6e63" fill-rule="evenodd"></path>
<path transform="matrix(1,0,0,-1,422.2119,434.7129)" d="M0 0C1.212 .536 2.373 1.172 3.483 1.902 4.921 2.864 6.287 3.951 7.501 5.187 8.624 6.33 9.623 7.574 10.47 8.935 11.219 10.137 11.776 11.417 12.104 12.797 12.29 13.578 12.485 14.792 11.953 15.489L11.94 15.506 11.928 15.523C11.531 16.093 11.017 16.318 10.329 16.318 9.124 16.318 8.028 15.981 7.03 15.323 5.9 14.555 4.954 13.599 4.139 12.51 3.246 11.299 2.514 9.957 1.92 8.578 1.312 7.156 .824 5.691 .466 4.186 .249 3.276 .111 2.352 .056 1.419 .028 .947 .009 .474 0 0M-143.021 5.497C-140.09-12.488-127.324-6.305-119.049 2.976-118.195 5.222-117.104 7.372-115.734 9.368-113.694 12.34-111.289 15.047-108.46 17.285-105.915 19.32-103.125 20.975-100.061 22.1-97.472 23.049-94.707 23.722-91.937 23.722-90.384 23.722-88.824 23.505-87.342 23.002-86.217 22.595-85.082 22.104-84.045 21.478-83.33 21.02-82.559 20.484-81.977 19.865-81.751 19.627-81.428 19.327-81.232 19.07L-81.191 19.018-81.159 18.96C-80.66 18.084-80.472 17.14-80.708 16.15-80.956 15.106-81.551 14.247-82.362 13.566-83.174 12.86-84.147 12.427-85.233 12.427-86.291 12.427-87.259 12.811-87.909 13.662-88.022 13.812-88.203 13.975-88.344 14.096L-88.382 14.129-88.417 14.166C-88.672 14.436-89.124 14.703-89.434 14.888-89.995 15.207-90.637 15.433-91.254 15.619-92.055 15.86-92.966 15.921-93.799 15.921-95.488 15.921-97.25 15.468-98.83 14.896-100.829 14.17-102.67 13.028-104.314 11.7-106.227 10.111-107.862 8.223-109.25 6.165-110.854 3.787-111.901 1.09-112.563-1.69-112.781-2.604-112.905-3.541-112.931-4.48-112.953-5.271-112.875-6.095-112.574-6.833-112.312-7.479-111.905-8.011-111.311-8.407-110.615-8.9-109.64-9.023-108.81-9.023-107.825-9.023-106.646-8.569-105.76-8.158-104.322-7.516-103.003-6.527-101.845-5.471-100.314-4.072-98.984-2.442-97.806-.738-96.363 1.331-95.244 3.651-94.356 6.01-93.996 6.955-93.4 7.715-92.566 8.29-91.754 8.89-90.813 9.215-89.804 9.215-88.787 9.215-87.927 8.785-87.313 7.979L-87.295 7.955-87.278 7.93C-86.735 7.12-86.558 6.217-86.719 5.246-86.969 3.888-87.177 2.512-87.379 1.146-87.632-.541-87.715-2.254-87.579-3.962-87.484-5.415-87.124-6.845-86.371-8.102-85.683-9.251-84.45-9.553-83.179-9.553-81.964-9.553-80.773-9.167-79.689-8.645-78.257-7.956-76.909-7.056-75.657-6.082-74.19-4.941-72.811-3.685-71.51-2.355-70.158-.994-68.881 .435-67.629 1.876-66.502 3.221-65.413 4.597-64.368 6.011-63.507 7.163-62.671 8.326-61.833 9.481-61.617 9.794-61.376 10.078-61.109 10.333-54.708 31.838-48.85 53.604-44.379 75.717-43.425 80.436-35.83 80.733-36.598 75.181-39.985 50.703-48.638 28.51-54.596 4.795-54.024 5.683-53.441 6.562-52.848 7.434-50.861 10.342-48.67 13.104-46.244 15.655-43.989 18.054-41.465 20.202-38.663 21.931-36.088 23.541-33.283 24.489-30.234 24.489-28.714 24.489-27.205 24.232-25.835 23.579-24.555 23-23.484 22.145-22.635 21.029-21.777 19.904-21.234 18.633-20.999 17.248-20.708 15.722-20.825 14.162-21.185 12.657-21.775 10.172-22.889 7.897-24.45 5.875-26.035 3.822-27.886 2.017-29.982 .497-32.151-1.12-34.502-2.471-36.958-3.604-39.12-4.601-41.337-5.462-43.607-6.177-43.137-7.506-42.264-8.555-41.039-9.377-39.307-10.54-37.263-10.956-35.202-10.956-33.998-10.956-32.627-10.761-31.435-10.62-29.309-10.34-27.01-9.349-25.111-8.389-22.037-6.835-19.089-4.526-16.495-2.278-12.635 1.092-9.233 5.397-6.278 9.56-6.026 9.924-5.747 10.253-5.428 10.539-5.139 11.193-4.825 11.839-4.485 12.473-3.33 14.68-1.899 16.745-.154 18.524 1.456 20.188 3.306 21.594 5.39 22.616 7.383 23.58 9.495 24.092 11.708 24.092 13.02 24.092 14.278 23.828 15.482 23.282 16.668 22.711 17.689 21.923 18.482 20.881 19.342 19.796 19.857 18.535 20.144 17.179 20.448 15.58 20.306 13.912 19.931 12.34 19.399 10.107 18.506 8.015 17.298 6.062 16.071 4.094 14.582 2.308 12.921 .687 11.163-1.006 9.235-2.52 7.191-3.854 5.385-5.018 3.506-6.062 1.56-6.97 2.188-7.904 3.008-8.672 3.992-9.271 5.587-10.224 7.611-10.48 9.437-10.48 11.869-10.48 14.165-9.881 16.326-8.764 18.718-7.527 20.922-5.952 22.915-4.145 25.104-2.16 27.118 .013 28.953 2.328 30.813 4.678 32.603 7.073 34.287 9.537 34.733 10.227 35.319 10.778 36.051 11.168 36.693 11.5 37.417 11.703 38.144 11.703 39.265 11.703 40.25 11.283 40.886 10.342L40.901 10.318 40.916 10.294C41.431 9.431 41.599 8.506 41.364 7.521 41.291 7.218 41.187 6.907 41.041 6.631L41.033 6.614 41.023 6.598C40.89 6.364 40.748 6.142 40.597 5.937 36.127-.502 30.738-7.205 24.498-12.012 19.714-15.718 14.254-18.239 8.115-18.359 5.05-18.359 1.881-17.846-.775-16.228-2.993-14.86-4.823-13.055-6.03-10.74-7.189-8.569-7.802-6.193-7.995-3.752-8.172-3.936-8.352-4.119-8.531-4.301-11.344-7.147-14.397-9.778-17.714-12.021-20.658-14.029-23.821-15.745-27.181-16.951-30.201-18.044-33.351-18.677-36.569-18.677-38.827-18.677-41.091-18.334-43.212-17.523-45.031-16.799-46.773-15.801-48.133-14.381-49.397-13.09-50.337-11.586-50.876-9.864-51.43-8.153-51.469-6.396-51.053-4.647-50.98-4.342-50.874-4.037-50.781-3.737L-50.771-3.708-50.761-3.678C-50.563-3.159-50.237-2.676-49.892-2.242-49.485-1.675-48.954-1.191-48.382-.794-47.691-.271-46.856 .075-46.033 .329L-45.999 .34C-43.859 .915-41.779 1.658-39.762 2.56-37.959 3.397-36.204 4.362-34.593 5.532-33.2 6.543-31.927 7.716-30.882 9.095-29.929 10.324-29.272 11.68-28.912 13.194-28.699 14.088-28.693 15.003-29.278 15.753-29.888 16.458-30.709 16.688-31.62 16.688-33.025 16.688-34.393 16.119-35.574 15.404-37.249 14.376-38.803 13.101-40.22 11.753-41.933 10.077-43.534 8.295-45.025 6.422-46.645 4.371-48.178 2.254-49.63 .076-51.081-2.063-52.425-4.267-53.711-6.502-54.829-8.486-55.904-10.501-56.916-12.556-57.236-13.169-57.542-13.797-57.86-14.411-58.248-15.159-58.716-15.86-59.265-16.51-59.817-17.141-60.435-17.719-61.154-18.154-61.953-18.678-62.885-18.889-63.833-18.889-64.927-18.889-65.842-18.415-66.58-17.62L-66.596-17.603-66.612-17.584C-67.58-16.435-67.44-14.772-67.115-13.41-66.831-12.215-66.508-11.018-66.209-9.824-65.902-8.6-65.596-7.374-65.288-6.148-65.42-6.288-65.552-6.427-65.684-6.565-67.493-8.457-69.451-10.197-71.523-11.805-73.534-13.323-75.681-14.682-77.966-15.753-80.126-16.754-82.413-17.354-84.804-17.354-87.797-17.354-90.501-16.455-92.447-14.112-93.813-12.47-94.649-10.566-95.087-8.533-97.087-10.684-99.343-12.608-101.849-14.138-104.383-15.69-107.273-16.877-110.288-16.877-112.145-16.877-113.994-16.567-115.678-15.737-117.196-14.958-118.413-13.866-119.305-12.42-119.936-11.429-120.36-10.352-120.634-9.227-128.994-18.394-141.282-17.433-147.287-7.622-148.913-4.994-149.982-2.089-150.591 .931-151.287 4.239-151.582 7.632-151.57 11.011-151.474 31.065-145.132 53.138-136.094 70.796-155.892 48.088-173.063 24.276-189.178-1.037-191.015-3.943-192.851-6.855-194.646-9.792-195.268-10.79-196.045-11.938-196.598-12.979L-196.609-13.028-196.701-13.169C-197.658-14.65-199.007-15.554-200.796-15.554-201.684-15.554-202.519-15.26-203.138-14.607-203.75-13.956-204.014-13.15-204.016-12.265L-204.017-12.147-204.009-12.115C-203.958-11.084-203.986-9.978-203.97-8.946-203.96-6.077-203.936-3.21-203.908-.34-203.866 3.799-203.835 7.938-203.786 12.077-203.727 16.965-203.679 21.853-203.63 26.739-203.585 31.893-203.521 37.046-203.472 42.199-203.436 45.932-203.388 49.665-203.326 53.397-207.99 45.64-212.865 37.985-218.067 30.584-222.861 23.747-227.976 17.058-233.563 10.848-238.109 5.797-243.021 .957-248.371-3.245-252.907-6.809-257.775-9.998-262.984-12.492-267.71-14.754-272.669-16.47-277.811-17.493-282.88-18.502-288.034-18.969-293.201-18.969-296.082-18.969-298.969-18.641-301.797-18.074-304.774-17.449-307.665-16.517-310.434-15.251-313.194-13.977-315.763-12.365-318.136-10.463-320.524-8.528-322.509-6.203-324.063-3.555-325.717-.778-326.711 2.3-327.181 5.488-327.728 9.201-327.311 13.03-326.447 16.662-325.412 21.011-323.557 24.98-320.885 28.563-318.239 32.131-315.048 35.226-311.401 37.758-307.689 40.358-303.617 42.354-299.311 43.765-294.996 45.155-290.522 45.904-285.988 45.904-283.092 45.904-280.148 45.676-277.309 45.06-275.105 44.557-272.856 43.906-270.821 42.926-269.19 42.167-267.574 41.244-266.187 40.083-265.161 39.204-264.17 38.265-263.248 37.266-262.627 36.569-261.999 35.762-261.587 34.921L-261.574 34.894-261.562 34.864C-261.528 34.782-261.486 34.679-261.441 34.575H-261.27L-261.056 33.876C-260.836 33.161-260.78 32.447-260.954 31.717-261.19 30.722-261.804 29.898-262.54 29.211L-262.553 29.198-262.566 29.187C-263.424 28.442-264.439 28.019-265.579 28.019-266.919 28.019-267.986 28.623-268.576 29.816-268.886 30.24-269.201 30.803-269.463 31.229-270.138 32.276-271.305 33.231-272.31 33.951-274.001 35.184-276.159 36.079-278.125 36.754-281.096 37.763-284.514 38.024-287.631 38.024-291.155 38.024-294.64 37.473-297.999 36.403-301.317 35.348-304.435 33.841-307.293 31.85-310.063 29.919-312.484 27.58-314.521 24.892-316.501 22.258-317.871 19.357-318.634 16.15-319.293 13.379-319.604 10.449-319.128 7.62-318.729 5.185-317.93 2.858-316.64 .748-315.396-1.284-313.781-3.022-311.917-4.49-309.959-5.98-307.842-7.236-305.577-8.204-303.309-9.184-300.948-9.906-298.533-10.393-296.21-10.833-293.852-11.115-291.484-11.115-287.607-11.115-283.735-10.799-279.901-10.227-275.892-9.627-271.988-8.449-268.239-6.928-263.943-5.158-259.878-2.822-256.054-.199-251.366 3.061-247.039 6.942-243.042 11.011-237.928 16.218-233.241 21.925-228.849 27.749-223.234 35.194-218.054 43.02-213.142 50.945-211.376 53.775-209.701 56.667-208.084 59.584-206.385 62.649-204.673 65.707-202.948 68.757-202.769 72.583-202.521 76.433-202.086 80.241-201.758 82.927-201.38 85.688-200.753 88.32-200.301 90.216-199.708 92.257-198.815 93.998-198.214 95.16-197.459 96.408-196.492 97.305-195.763 98.02-194.89 98.607-193.893 98.868-193.163 99.06-192.401 99.165-191.646 99.165-190.975 99.165-190.304 99.026-189.652 98.822-188.733 98.504-188.086 97.83-187.651 96.976-187.09 95.974-186.931 94.629-186.883 93.488-186.852 91.641-187.245 89.601-187.671 87.81-188.376 84.849-189.38 81.905-190.453 79.056-191.839 75.447-193.399 71.896-195.048 68.4-195.143 64.966-195.203 61.528-195.22 58.087-195.275 54.063-195.333 50.037-195.394 46.013-195.458 41.762-195.492 37.509-195.544 33.257-195.597 29.021-195.653 24.784-195.709 20.548-195.77 16.587-195.809 12.624-195.865 8.664-195.894 6.398-195.913 4.133-195.926 1.868-193.817 5.165-191.699 8.456-189.589 11.752-172.547 38.287-153.559 63.29-131.534 85.941-129.058 88.522-126.499 91.186-123.83 93.562-122.944 94.36-121.796 95.302-120.989 96.164L-120.938 96.22-120.877 96.27C-120.026 96.957-119.063 97.336-117.963 97.336-116.854 97.336-115.882 96.968-115.224 96.05L-115.207 96.026-115.191 96.001C-114.647 95.14-114.5 94.173-114.736 93.18-114.856 92.678-115.074 92.229-115.357 91.799-115.694 91.137-116.583 89.851-116.803 89.517-118.061 87.523-119.283 85.515-120.478 83.484-122.225 80.515-123.93 77.521-125.598 74.507-135.683 56.279-143.23 34.016-143.542 12.951-143.58 10.455-143.408 7.958-143.021 5.497" fill="#10b981" fill-rule="evenodd"></path>
<path transform="matrix(1,0,0,-1,523.3496,318.5557)" d="M0 0C3.94-1.396 6.003-5.724 4.606-9.663 3.677-12.288 1.446-14.078-1.104-14.569L-43.72-134.8C-55.809-165.089-57.916-175.437-68.066-192.035-65.085-172.148-60.618-163.385-50.935-132.243L-36.429-91.32-8.318-12.013C-9.989-10.024-10.594-7.229-9.664-4.605-8.268-.665-3.939 1.397 0 0" fill="#8d6e63" fill-rule="evenodd"></path>
<path transform="matrix(1,0,0,-1,306.022,102.22461)" d="M0 0C4.172 1.989 9.168 .217 11.156-3.955 12.48-6.733 12.137-9.877 10.528-12.255L29.944-52.992C27.207-54.042 24.608-55.173 22.187-56.388L2.888-15.896C.027-15.649-2.631-13.936-3.955-11.157-5.943-6.985-4.173-1.989 0 0M75.045-148.377C86.644-174.646 92.359-184.421 96.921-203.355 83.807-185.614 80.395-175.288 63.952-143.942 67.671-145.551 71.382-147.038 75.045-148.377" fill="#8d6e63" fill-rule="evenodd"></path>
</g>
</g>
</svg>