<?xml version="1.0" encoding="UTF-8"?> <svg xmlns="http://www.w3.org/2000/svg" xmlns:xlink="http://www.w3.org/1999/xlink" width="336" zoomAndPan="magnify" viewBox="0 0 252 143.999998" height="192" preserveAspectRatio="xMidYMid meet" version="1.0"><defs><clipPath id="3b05926188"><path d="M 10.054688 14.398438 L 109 14.398438 L 109 121.648438 L 10.054688 121.648438 Z M 10.054688 14.398438 " clip-rule="nonzero"></path></clipPath><clipPath id="d02baafc3c"><path d="M 109.496094 18.324219 L 248 18.324219 L 248 116.574219 L 109.496094 116.574219 Z M 109.496094 18.324219 " clip-rule="nonzero"></path></clipPath></defs><rect x="-25.2" width="302.4" fill="#ffffff" y="-14.4" height="172.799997" fill-opacity="1"></rect><rect x="-25.2" width="302.4" fill="#ffffff" y="-14.4" height="172.799997" fill-opacity="1"></rect><g clip-path="url(#3b05926188)"><path fill="#8d6e63" d="M 45.765625 89.851562 L 42.152344 93.464844 C 41.710938 93.90625 41 93.90625 40.558594 93.464844 L 38.476562 91.382812 C 37.425781 90.332031 39.023438 88.738281 40.074219 89.789062 L 41.355469 91.070312 L 44.171875 88.253906 C 45.222656 87.203125 46.816406 88.800781 45.765625 89.851562 Z M 84.613281 47.183594 L 57.34375 47.183594 C 55.871094 47.183594 55.851562 49.453125 57.34375 49.453125 L 84.613281 49.453125 C 86.082031 49.453125 86.101562 47.183594 84.613281 47.183594 Z M 44.171875 66.972656 L 41.355469 69.789062 L 40.074219 68.507812 C 39.023438 67.457031 37.425781 69.050781 38.476562 70.101562 L 40.558594 72.183594 C 41 72.625 41.710938 72.625 42.152344 72.183594 L 45.765625 68.570312 C 46.816406 67.519531 45.222656 65.921875 44.171875 66.972656 Z M 84.613281 73.820312 L 57.34375 73.820312 C 55.871094 73.820312 55.851562 76.089844 57.34375 76.089844 L 84.613281 76.089844 C 86.082031 76.089844 86.101562 73.84375 84.613281 73.820312 Z M 106.585938 93.609375 C 106.585938 93.609375 93.121094 100.796875 93.121094 100.773438 L 93.121094 108.652344 C 93.121094 110.878906 91.3125 112.6875 89.085938 112.6875 L 70.789062 112.6875 L 54.589844 121.320312 C 53.980469 121.636719 53.351562 121.785156 52.722656 121.785156 C 51.292969 121.785156 49.886719 121.007812 49.171875 119.660156 L 45.453125 112.707031 L 30.222656 112.707031 C 28.015625 112.707031 26.207031 110.902344 26.207031 108.675781 L 26.207031 76.53125 L 11.101562 48.171875 C 10.054688 46.28125 10.832031 43.695312 12.761719 42.730469 L 26.207031 35.566406 L 26.207031 27.6875 C 26.207031 25.480469 28.015625 23.675781 30.222656 23.675781 L 48.5625 23.675781 L 64.757812 15.039062 C 65.703125 14.535156 66.796875 14.429688 67.824219 14.746094 C 68.855469 15.0625 69.695312 15.753906 70.199219 16.699219 L 73.898438 23.652344 L 89.128906 23.652344 C 91.355469 23.652344 93.164062 25.460938 93.164062 27.664062 L 93.164062 59.808594 L 108.265625 88.148438 C 109.277344 90.101562 108.539062 92.539062 106.585938 93.609375 Z M 26.1875 38.148438 L 13.8125 44.746094 C 12.972656 45.164062 12.636719 46.300781 13.078125 47.121094 L 26.1875 71.71875 Z M 53.371094 23.675781 L 71.3125 23.675781 L 68.183594 17.769531 C 67.761719 16.929688 66.628906 16.59375 65.808594 17.035156 Z M 65.957031 112.6875 L 48.015625 112.6875 L 51.167969 118.589844 C 51.628906 119.453125 52.679688 119.765625 53.539062 119.324219 Z M 90.871094 27.6875 C 90.871094 26.71875 90.074219 25.941406 89.109375 25.941406 L 30.199219 25.941406 C 29.234375 25.941406 28.457031 26.71875 28.457031 27.6875 L 28.457031 108.652344 C 28.457031 109.621094 29.234375 110.417969 30.199219 110.417969 L 89.109375 110.417969 C 90.074219 110.417969 90.871094 109.621094 90.871094 108.652344 Z M 106.230469 89.21875 L 93.140625 64.640625 L 93.140625 98.210938 L 105.515625 91.617188 C 106.355469 91.152344 106.691406 90.082031 106.230469 89.21875 Z M 57.34375 44.074219 L 70.515625 44.074219 C 71.144531 44.074219 71.648438 43.570312 71.648438 42.9375 C 71.648438 42.308594 71.144531 41.804688 70.515625 41.804688 L 57.34375 41.804688 C 55.851562 41.804688 55.851562 44.074219 57.34375 44.074219 Z M 57.34375 65.332031 L 70.515625 65.332031 C 71.144531 65.332031 71.648438 64.828125 71.648438 64.199219 C 71.648438 63.570312 71.144531 63.066406 70.515625 63.066406 L 57.34375 63.066406 C 55.851562 63.066406 55.851562 65.332031 57.34375 65.332031 Z M 50.453125 90.859375 C 50.054688 101.867188 34.191406 101.867188 33.8125 90.859375 C 33.8125 86.277344 37.554688 82.539062 42.132812 82.539062 C 46.710938 82.539062 50.453125 86.257812 50.453125 90.859375 Z M 42.132812 84.789062 C 34.128906 85.039062 34.128906 96.636719 42.132812 96.886719 C 50.117188 96.65625 50.117188 85.039062 42.132812 84.789062 Z M 50.453125 48.316406 C 50.054688 59.324219 34.191406 59.324219 33.8125 48.316406 C 33.8125 43.738281 37.554688 39.996094 42.132812 39.996094 C 46.710938 39.996094 50.453125 43.738281 50.453125 48.316406 Z M 42.132812 42.265625 C 34.128906 42.519531 34.128906 54.117188 42.132812 54.367188 C 50.117188 54.117188 50.117188 42.519531 42.132812 42.265625 Z M 84.613281 95.101562 L 57.34375 95.101562 C 55.871094 95.101562 55.851562 97.371094 57.34375 97.371094 L 84.613281 97.371094 C 86.082031 97.351562 86.101562 95.101562 84.613281 95.101562 Z M 57.34375 86.59375 L 70.515625 86.59375 C 71.144531 86.59375 71.648438 86.089844 71.648438 85.460938 C 71.648438 84.828125 71.144531 84.324219 70.515625 84.324219 L 57.34375 84.324219 C 55.851562 84.347656 55.851562 86.59375 57.34375 86.59375 Z M 84.613281 89.726562 L 57.34375 89.726562 C 55.871094 89.726562 55.851562 91.992188 57.34375 91.992188 L 84.613281 91.992188 C 86.082031 91.972656 86.101562 89.726562 84.613281 89.726562 Z M 84.613281 52.5625 L 57.34375 52.5625 C 55.871094 52.5625 55.851562 54.828125 57.34375 54.828125 L 84.613281 54.828125 C 86.082031 54.828125 86.101562 52.5625 84.613281 52.5625 Z M 50.453125 69.578125 C 50.054688 80.585938 34.191406 80.585938 33.8125 69.578125 C 33.8125 64.996094 37.554688 61.257812 42.132812 61.257812 C 46.710938 61.257812 50.453125 64.996094 50.453125 69.578125 Z M 42.132812 63.527344 C 34.128906 63.78125 34.128906 75.375 42.132812 75.628906 C 50.117188 75.375 50.117188 63.78125 42.132812 63.527344 Z M 84.613281 68.441406 L 57.34375 68.441406 C 55.871094 68.441406 55.851562 70.710938 57.34375 70.710938 L 84.613281 70.710938 C 86.082031 70.710938 86.101562 68.464844 84.613281 68.441406 Z M 44.171875 45.710938 L 41.355469 48.527344 L 40.074219 47.246094 C 39.023438 46.195312 37.425781 47.792969 38.476562 48.84375 L 40.558594 50.921875 C 40.976562 51.363281 41.734375 51.363281 42.152344 50.921875 L 45.765625 47.308594 C 46.816406 46.257812 45.222656 44.660156 44.171875 45.710938 Z M 44.171875 45.710938 " fill-opacity="1" fill-rule="nonzero"></path></g><g clip-path="url(#d02baafc3c)"><path fill="#10b981" d="M 109.746094 100.355469 L 123.441406 35.09375 C 123.855469 33.136719 125.199219 31.503906 127.039062 30.734375 C 138.1875 26.070312 157.707031 18.316406 163.199219 18.816406 C 167.59375 19.214844 180.925781 26.921875 195.367188 35.46875 C 199.070312 37.660156 202.882812 39.917969 204.183594 40.566406 C 206.46875 39.859375 215.316406 37.125 224.175781 34.53125 C 245.789062 28.203125 246.296875 28.710938 247.222656 29.632812 C 247.832031 30.246094 248.109375 30.523438 247.742188 41.125 C 247.527344 47.21875 247.121094 55.273438 246.597656 63.792969 C 245.621094 79.675781 244.089844 99.296875 242.707031 106.734375 C 242.1875 109.53125 241.765625 110.460938 240.820312 110.882812 C 238.398438 111.960938 210.898438 114.714844 194.71875 116.257812 C 194.574219 116.273438 194.429688 116.277344 194.285156 116.277344 C 193.628906 116.277344 192.972656 116.140625 192.367188 115.871094 L 151.78125 97.707031 C 151.507812 97.582031 151.191406 97.550781 150.902344 97.617188 L 115.070312 105.609375 C 113.585938 105.941406 112.058594 105.5 110.976562 104.433594 C 109.894531 103.367188 109.4375 101.84375 109.75 100.355469 Z M 239.0625 107.980469 C 241.363281 101.371094 244.84375 42.132812 244.589844 32.492188 C 239.589844 33.359375 221.132812 38.742188 204.636719 43.882812 L 198.34375 87.332031 C 198.480469 87.332031 198.609375 87.332031 198.746094 87.332031 C 199.628906 87.292969 200.414062 88.035156 200.433594 88.945312 C 200.453125 89.855469 199.730469 90.613281 198.820312 90.632812 C 198.570312 90.636719 198.289062 90.660156 198.082031 90.640625 C 198.007812 90.640625 197.9375 90.636719 197.867188 90.636719 L 194.632812 112.953125 C 214.558594 111.046875 235.398438 108.828125 239.054688 107.984375 Z M 193.03125 112.550781 L 196.210938 90.578125 C 194.222656 90.460938 192.246094 90.15625 190.324219 89.664062 C 189.441406 89.4375 188.90625 88.539062 189.132812 87.65625 C 189.359375 86.773438 190.257812 86.242188 191.140625 86.46875 C 192.953125 86.933594 194.8125 87.203125 196.6875 87.292969 L 203.007812 43.65625 C 201.910156 43.152344 199.632812 41.832031 193.6875 38.3125 C 184.628906 32.953125 168.019531 23.121094 163.328125 22.171875 L 161.761719 32.183594 C 163.226562 33.503906 167.5 37.679688 170.039062 43.453125 C 173.535156 51.398438 178.585938 54.230469 185.933594 52.363281 C 190.515625 51.203125 192.457031 49.328125 194.167969 47.675781 C 195.738281 46.164062 197.21875 44.734375 200.230469 44.589844 C 200.679688 44.585938 201.070312 44.917969 201.09375 45.375 C 201.113281 45.832031 200.765625 46.214844 200.308594 46.238281 C 197.914062 46.351562 196.824219 47.40625 195.3125 48.863281 C 193.542969 50.566406 191.347656 52.6875 186.339844 53.960938 C 184.75 54.363281 183.242188 54.566406 181.828125 54.566406 C 175.984375 54.566406 171.605469 51.117188 168.523438 44.113281 C 166.503906 39.519531 163.230469 35.914062 161.445312 34.164062 L 158.183594 55.039062 C 158.328125 55.253906 158.476562 55.457031 158.621094 55.679688 C 159.703125 57.351562 160.855469 59.136719 162.085938 60.976562 C 162.597656 61.734375 162.390625 62.761719 161.636719 63.265625 C 161.355469 63.453125 161.035156 63.546875 160.71875 63.546875 C 160.1875 63.546875 159.664062 63.289062 159.347656 62.816406 C 158.683594 61.824219 158.046875 60.851562 157.421875 59.902344 L 154.867188 76.265625 C 156.636719 77.078125 162.949219 80.546875 165.625 89.816406 C 167.464844 96.191406 170.660156 99.136719 175.414062 98.8125 C 179.648438 98.53125 185.269531 98.835938 188.015625 101.878906 C 189.421875 103.4375 189.914062 105.515625 189.480469 108.054688 C 189.410156 108.460938 189.0625 108.742188 188.667969 108.742188 C 188.621094 108.742188 188.574219 108.738281 188.523438 108.730469 C 188.078125 108.652344 187.773438 108.226562 187.851562 107.777344 C 188.199219 105.734375 187.851562 104.164062 186.785156 102.984375 C 184.988281 100.992188 180.992188 100.101562 175.519531 100.460938 C 169.964844 100.828125 166.09375 97.40625 164.035156 90.273438 C 161.75 82.371094 156.542969 79 154.589844 77.980469 L 152.03125 94.371094 C 152.40625 94.4375 152.773438 94.535156 153.117188 94.6875 L 193.019531 112.546875 Z M 113.292969 102.082031 C 113.425781 102.214844 113.796875 102.511719 114.347656 102.386719 L 150.179688 94.394531 C 150.246094 94.382812 150.308594 94.382812 150.371094 94.371094 L 152.914062 78.082031 C 150.640625 78.675781 146.175781 79.429688 142.285156 77.613281 C 139.605469 76.367188 137.683594 74.128906 136.574219 70.96875 C 132.976562 60.710938 124.617188 61.234375 124.257812 61.261719 C 123.796875 61.300781 123.40625 60.960938 123.367188 60.507812 C 123.328125 60.054688 123.667969 59.65625 124.121094 59.617188 C 124.21875 59.609375 134.09375 58.921875 138.128906 70.421875 C 139.085938 73.144531 140.714844 75.0625 142.972656 76.117188 C 146.820312 77.910156 151.519531 76.789062 153.199219 76.285156 L 156.082031 57.828125 C 156.007812 57.714844 155.925781 57.589844 155.851562 57.472656 C 155.539062 56.984375 155.214844 56.523438 154.894531 56.074219 C 154.355469 55.335938 154.523438 54.304688 155.261719 53.769531 C 155.707031 53.445312 156.265625 53.382812 156.75 53.546875 L 159.851562 33.71875 C 153.398438 36.320312 146.859375 30.261719 146.5625 29.984375 C 146.234375 29.671875 146.21875 29.148438 146.53125 28.816406 C 146.84375 28.484375 147.367188 28.46875 147.699219 28.78125 C 147.765625 28.84375 154.421875 34.996094 160.164062 31.738281 L 161.660156 22.15625 C 156.925781 22.71875 144.292969 27.101562 128.320312 33.785156 C 127.480469 34.136719 126.867188 34.882812 126.675781 35.777344 L 112.980469 101.039062 C 112.867188 101.589844 113.164062 101.957031 113.296875 102.089844 Z M 113.292969 102.082031 " fill-opacity="1" fill-rule="nonzero"></path></g><path fill="#10b981" d="M 215.144531 102.882812 C 217.554688 102.6875 220.042969 102.488281 222.742188 99.789062 C 229.410156 93.121094 237.1875 97.140625 237.261719 97.179688 C 237.664062 97.394531 237.816406 97.890625 237.605469 98.292969 C 237.390625 98.699219 236.894531 98.851562 236.488281 98.636719 C 236.214844 98.492188 229.699219 95.167969 223.910156 100.953125 C 220.78125 104.085938 217.730469 104.332031 215.277344 104.53125 C 212.492188 104.757812 210.476562 104.917969 208.847656 108.847656 C 208.714844 109.164062 208.40625 109.355469 208.082031 109.355469 C 207.976562 109.355469 207.871094 109.335938 207.769531 109.292969 C 207.347656 109.117188 207.148438 108.632812 207.324219 108.214844 C 209.339844 103.355469 212.292969 103.117188 215.144531 102.882812 Z M 215.144531 102.882812 " fill-opacity="1" fill-rule="nonzero"></path><path fill="#10b981" d="M 220.375 76.511719 C 220.339844 76.515625 220.300781 76.519531 220.261719 76.519531 C 220.046875 76.519531 219.835938 76.433594 219.679688 76.28125 C 219.210938 75.820312 208.226562 64.828125 208.226562 53.636719 C 208.226562 49.53125 211.167969 46.058594 215.550781 44.992188 C 219.085938 44.132812 224.167969 44.984375 226.867188 50.207031 C 230.902344 58.019531 221.390625 75.359375 220.984375 76.09375 C 220.859375 76.320312 220.636719 76.476562 220.378906 76.511719 Z M 225.398438 50.964844 C 223.632812 47.546875 220.730469 46.34375 218.066406 46.34375 C 217.328125 46.34375 216.609375 46.433594 215.941406 46.597656 C 212.925781 47.332031 209.878906 49.792969 209.878906 53.636719 C 209.878906 62.472656 217.570312 71.570312 220.066406 74.292969 C 222.015625 70.511719 228.515625 57.007812 225.398438 50.964844 Z M 225.398438 50.964844 " fill-opacity="1" fill-rule="nonzero"></path><path fill="#10b981" d="M 213.09375 54.667969 C 213.09375 52.054688 215.222656 49.925781 217.839844 49.925781 C 220.453125 49.925781 222.582031 52.054688 222.582031 54.667969 C 222.582031 57.285156 220.453125 59.414062 217.839844 59.414062 C 215.222656 59.414062 213.09375 57.285156 213.09375 54.667969 Z M 220.933594 54.667969 C 220.933594 52.964844 219.542969 51.574219 217.839844 51.574219 C 216.132812 51.574219 214.746094 52.964844 214.746094 54.667969 C 214.746094 56.375 216.132812 57.761719 217.839844 57.761719 C 219.542969 57.761719 220.933594 56.375 220.933594 54.667969 Z M 220.933594 54.667969 " fill-opacity="1" fill-rule="nonzero"></path><path fill="#10b981" d="M 131.183594 42.226562 C 131.257812 42.210938 133 41.917969 135.664062 42.046875 C 136.574219 42.089844 137.277344 42.863281 137.230469 43.773438 C 137.1875 44.683594 136.421875 45.382812 135.503906 45.34375 C 133.257812 45.230469 131.792969 45.46875 131.75 45.476562 C 131.65625 45.496094 131.5625 45.503906 131.464844 45.503906 C 130.679688 45.503906 129.980469 44.9375 129.84375 44.132812 C 129.6875 43.234375 130.289062 42.378906 131.1875 42.226562 Z M 131.183594 42.226562 " fill-opacity="1" fill-rule="nonzero"></path><path fill="#10b981" d="M 170.621094 76.472656 C 170.171875 76.472656 169.726562 76.292969 169.40625 75.9375 C 167.644531 74.011719 165.914062 71.921875 164.113281 69.542969 C 163.5625 68.816406 163.707031 67.78125 164.433594 67.230469 C 165.164062 66.679688 166.195312 66.824219 166.746094 67.550781 C 168.484375 69.847656 170.148438 71.859375 171.839844 73.710938 C 172.453125 74.382812 172.410156 75.425781 171.734375 76.039062 C 171.417969 76.332031 171.019531 76.472656 170.621094 76.472656 Z M 170.621094 76.472656 " fill-opacity="1" fill-rule="nonzero"></path><path fill="#10b981" d="M 144.101562 43.75 C 146.816406 44.742188 149.351562 46.148438 151.636719 47.9375 C 152.355469 48.496094 152.484375 49.535156 151.921875 50.253906 C 151.597656 50.671875 151.113281 50.890625 150.621094 50.890625 C 150.265625 50.890625 149.90625 50.777344 149.605469 50.539062 C 147.589844 48.96875 145.355469 47.726562 142.96875 46.851562 C 142.109375 46.539062 141.671875 45.589844 141.984375 44.734375 C 142.296875 43.875 143.246094 43.4375 144.101562 43.75 Z M 144.101562 43.75 " fill-opacity="1" fill-rule="nonzero"></path><path fill="#10b981" d="M 183.1875 86.714844 C 182.921875 86.714844 182.648438 86.648438 182.398438 86.511719 C 180.050781 85.230469 177.707031 83.621094 175.433594 81.730469 C 174.730469 81.148438 174.636719 80.109375 175.214844 79.410156 C 175.796875 78.710938 176.839844 78.613281 177.539062 79.191406 C 179.652344 80.945312 181.816406 82.433594 183.980469 83.613281 C 184.777344 84.050781 185.074219 85.054688 184.636719 85.855469 C 184.339844 86.402344 183.773438 86.714844 183.1875 86.714844 Z M 183.1875 86.714844 " fill-opacity="1" fill-rule="nonzero"></path><path fill="#10b981" d="M 206.40625 86.1875 C 207.644531 85.851562 208.914062 85.4375 210.171875 84.957031 C 211.023438 84.628906 211.980469 85.054688 212.304688 85.90625 C 212.632812 86.757812 212.207031 87.710938 211.355469 88.039062 C 209.992188 88.558594 208.621094 89.007812 207.273438 89.375 C 207.128906 89.414062 206.984375 89.433594 206.839844 89.433594 C 206.113281 89.433594 205.449219 88.949219 205.25 88.210938 C 205.011719 87.332031 205.53125 86.425781 206.410156 86.1875 Z M 206.40625 86.1875 " fill-opacity="1" fill-rule="nonzero"></path><path fill="#10b981" d="M 216.285156 79.457031 C 216.769531 78.6875 217.785156 78.453125 218.558594 78.9375 L 221.019531 80.484375 L 223.40625 78.351562 C 224.085938 77.742188 225.128906 77.800781 225.738281 78.476562 C 226.347656 79.15625 226.289062 80.199219 225.609375 80.808594 L 223.933594 82.3125 L 225.957031 83.585938 C 226.726562 84.066406 226.960938 85.089844 226.476562 85.859375 C 226.164062 86.359375 225.628906 86.632812 225.078125 86.632812 C 224.777344 86.632812 224.476562 86.546875 224.199219 86.375 L 221.375 84.601562 L 219.261719 86.492188 C 218.949219 86.773438 218.554688 86.914062 218.160156 86.914062 C 217.707031 86.914062 217.257812 86.726562 216.929688 86.363281 C 216.324219 85.683594 216.382812 84.640625 217.058594 84.03125 L 218.464844 82.769531 L 216.808594 81.730469 C 216.035156 81.246094 215.804688 80.222656 216.289062 79.453125 Z M 216.285156 79.457031 " fill-opacity="1" fill-rule="nonzero"></path></svg>