<?xml version="1.0" encoding="UTF-8"?> <svg xmlns="http://www.w3.org/2000/svg" xmlns:xlink="http://www.w3.org/1999/xlink" width="336" zoomAndPan="magnify" viewBox="0 0 252 143.999998" height="192" preserveAspectRatio="xMidYMid meet" version="1.0"><defs><clipPath id="f2ab706003"><path d="M 235.683594 102.433594 L 252 102.433594 L 252 144 L 235.683594 144 Z M 235.683594 102.433594 " clip-rule="nonzero"></path></clipPath><clipPath id="51a644a0a1"><path d="M 248.023438 112.5 C 244.125 119.324219 242.625 119.773438 241.648438 119.550781 C 240.824219 119.398438 239.851562 118.425781 239.625 117.675781 C 239.398438 117 239.699219 116.101562 240.226562 115.5 C 240.898438 114.675781 242.699219 113.925781 243.898438 113.851562 C 245.023438 113.773438 246.449219 114.148438 247.273438 114.75 C 247.949219 115.273438 248.851562 116.625 248.699219 117 C 248.476562 117.375 246.976562 116.925781 246.300781 117.226562 C 245.550781 117.601562 244.726562 119.175781 244.425781 118.949219 C 243.824219 118.648438 245.25 111.898438 245.699219 109.800781 C 245.925781 108.675781 245.925781 108 246.375 107.25 C 246.898438 106.574219 247.949219 105.601562 248.773438 105.523438 C 249.675781 105.449219 250.875 105.75 251.476562 106.800781 C 253.125 109.273438 252.675781 121.949219 251.699219 125.023438 C 251.324219 126.148438 250.726562 126.898438 250.050781 127.199219 C 249.523438 127.425781 248.851562 127.273438 248.324219 127.125 C 247.875 126.898438 247.5 126.523438 247.125 125.925781 C 246.601562 125.023438 246.074219 123.449219 245.851562 121.949219 C 245.476562 120 245.398438 117 245.550781 115.351562 C 245.699219 114.375 245.773438 113.773438 246.226562 113.023438 C 246.675781 112.273438 247.949219 111.898438 248.324219 110.925781 C 248.773438 109.574219 246.675781 106.199219 247.425781 105.226562 C 248.023438 104.476562 250.800781 104.324219 251.398438 104.851562 C 252 105.375 251.773438 106.875 251.398438 108.148438 C 250.875 110.101562 249.300781 113.398438 247.574219 114.976562 C 246.074219 116.476562 242.550781 118.273438 242.101562 117.824219 C 241.800781 117.601562 242.925781 114.976562 243.226562 115.050781 C 243.601562 115.050781 244.648438 120.074219 244.050781 120.449219 C 243.601562 120.824219 241.574219 119.773438 241.5 119.324219 C 241.425781 118.726562 243.523438 117.601562 244.949219 117.074219 C 246.675781 116.398438 249.449219 115.800781 251.25 116.023438 C 252.75 116.25 254.476562 117.148438 255.148438 117.976562 C 255.523438 118.425781 255.523438 119.175781 255.449219 119.699219 C 255.300781 120.300781 254.925781 120.898438 254.476562 121.273438 C 254.023438 121.574219 253.351562 121.800781 252.75 121.800781 C 252.226562 121.726562 251.550781 121.5 251.101562 121.050781 C 250.351562 120.226562 249.976562 118.125 249.601562 116.625 C 249.226562 115.125 248.550781 113.023438 249.074219 111.898438 C 249.449219 111.074219 250.648438 110.324219 251.398438 110.25 C 251.925781 110.101562 252.675781 110.476562 253.050781 110.773438 C 253.5 111.148438 253.800781 111.601562 253.949219 112.351562 C 254.324219 114 253.949219 119.023438 253.5 120.824219 C 253.199219 121.648438 252.976562 122.25 252.523438 122.625 C 252.074219 123 251.324219 123.226562 250.800781 123.148438 C 250.273438 123.148438 249.601562 122.851562 249.148438 122.476562 C 248.773438 122.101562 248.625 121.726562 248.398438 120.898438 C 247.800781 118.5 246.148438 108.601562 247.726562 106.5 C 248.550781 105.300781 251.324219 104.773438 251.925781 105.449219 C 252.976562 106.574219 249.375 115.125 248.175781 117.75 C 247.5 119.101562 247.125 120.226562 246.226562 120.601562 C 245.398438 120.976562 244.125 120.601562 243.148438 120.148438 C 241.800781 119.398438 239.324219 117.300781 239.324219 116.175781 C 239.324219 115.425781 240.75 114.148438 241.125 114.300781 C 241.875 114.523438 241.125 120 241.648438 122.476562 C 242.175781 124.648438 243 126.375 244.050781 128.476562 C 245.324219 130.949219 249.300781 135.148438 248.851562 136.351562 C 248.550781 136.949219 246.824219 137.324219 246.523438 137.023438 C 246 136.425781 248.773438 132.148438 249.074219 130.273438 C 249.226562 129.074219 249 128.324219 248.699219 127.125 C 248.25 125.476562 246.148438 122.851562 246.375 121.5 C 246.601562 120.601562 247.574219 119.699219 248.324219 119.550781 C 249 119.398438 250.125 119.699219 250.800781 120.675781 C 252.449219 123.074219 252.226562 136.351562 251.625 139.273438 C 251.398438 140.324219 251.175781 140.851562 250.726562 141.226562 C 250.199219 141.601562 249.148438 141.75 248.550781 141.523438 C 248.023438 141.300781 247.425781 140.851562 247.125 139.949219 C 246.300781 137.023438 250.800781 124.875 251.25 118.5 C 251.550781 113.550781 249.675781 107.398438 250.5 105.074219 C 250.875 104.023438 251.625 103.351562 252.300781 103.199219 C 252.976562 103.125 254.175781 103.5 254.625 104.25 C 255.300781 105.300781 254.550781 107.699219 254.175781 110.101562 C 253.574219 114.226562 250.800781 120.898438 250.425781 126.300781 C 249.976562 131.773438 252.148438 142.648438 251.699219 142.800781 C 251.550781 142.800781 251.398438 142.125 251.25 142.199219 C 251.101562 142.199219 251.023438 143.324219 250.648438 143.773438 C 250.351562 144.148438 249.75 144.523438 249.226562 144.523438 C 248.550781 144.601562 247.574219 144.300781 247.125 143.773438 C 246.675781 143.25 246.375 142.199219 246.601562 141.601562 C 246.824219 140.851562 248.101562 139.875 248.851562 139.800781 C 249.523438 139.726562 250.5 140.25 250.875 140.851562 C 251.25 141.523438 251.175781 143.101562 250.726562 143.699219 C 250.351562 144.226562 249.300781 144.675781 248.625 144.523438 C 247.949219 144.375 246.75 143.324219 246.523438 142.574219 C 246.375 141.976562 246.75 140.925781 247.273438 140.476562 C 247.726562 140.023438 248.773438 139.726562 249.375 139.875 C 250.050781 140.023438 250.875 140.699219 251.101562 141.300781 C 251.324219 141.976562 251.101562 143.175781 250.648438 143.773438 C 250.273438 144.226562 249.300781 144.675781 248.625 144.523438 C 247.949219 144.449219 247.125 143.851562 246.601562 142.800781 C 245.324219 140.101562 245.476562 131.476562 246 125.625 C 246.601562 119.550781 249.226562 110.476562 250.050781 107.023438 C 250.425781 105.675781 250.648438 104.25 250.800781 104.25 C 250.875 104.324219 250.875 106.648438 250.800781 106.648438 C 250.800781 106.648438 250.351562 105.074219 250.648438 104.550781 C 250.949219 103.949219 252.148438 103.199219 252.824219 103.199219 C 253.425781 103.199219 254.175781 103.648438 254.625 104.25 C 255.226562 105.074219 255.226562 106.5 255.375 108.226562 C 255.601562 111.601562 255.226562 118.050781 254.699219 122.773438 C 254.324219 127.199219 253.648438 132.300781 252.75 135.675781 C 252.148438 137.925781 251.773438 140.476562 250.726562 141.226562 C 249.976562 141.675781 248.773438 141.675781 248.101562 141.300781 C 247.425781 140.851562 247.125 140.023438 246.75 138.75 C 246 135.976562 245.851562 127.199219 246.226562 123.898438 C 246.449219 122.175781 246.523438 120.675781 247.273438 120.074219 C 247.800781 119.550781 248.851562 119.476562 249.449219 119.625 C 249.976562 119.773438 250.351562 120.074219 250.800781 120.675781 C 251.625 121.726562 252.824219 124.425781 253.273438 126.226562 C 253.726562 127.875 253.949219 129.226562 253.726562 131.023438 C 253.351562 133.5 251.699219 138.148438 250.273438 139.574219 C 249.449219 140.398438 248.25 140.773438 247.351562 140.625 C 246.601562 140.550781 246 139.800781 245.25 138.898438 C 243.75 137.25 241.5 133.425781 240 130.425781 C 238.5 127.351562 236.773438 123.523438 236.25 120.523438 C 235.726562 118.050781 235.574219 115.273438 236.101562 113.625 C 236.476562 112.574219 237.226562 111.75 237.976562 111.375 C 238.726562 111 239.699219 110.851562 240.675781 111.148438 C 242.324219 111.75 246.675781 115.949219 246.449219 116.550781 C 246.300781 116.851562 244.050781 116.851562 243.601562 116.175781 C 242.699219 114.675781 245.476562 106.050781 247.425781 104.25 C 248.476562 103.273438 250.351562 102.976562 251.175781 103.351562 C 251.925781 103.726562 252.074219 104.851562 252.375 106.199219 C 253.125 109.199219 254.324219 118.5 253.351562 121.050781 C 252.976562 122.175781 252.148438 122.925781 251.398438 123.148438 C 250.875 123.300781 250.125 123.148438 249.675781 122.851562 C 249.148438 122.550781 248.773438 122.175781 248.550781 121.5 C 247.949219 119.773438 248.101562 113.699219 249.074219 111.898438 C 249.601562 110.925781 250.574219 110.25 251.398438 110.25 C 252.148438 110.175781 253.125 110.851562 253.800781 111.75 C 254.773438 113.25 255.523438 117.523438 255.449219 119.101562 C 255.449219 119.851562 255.300781 120.375 254.925781 120.824219 C 254.550781 121.273438 253.949219 121.648438 253.351562 121.726562 C 252.675781 121.800781 252 121.125 251.101562 121.050781 C 249.976562 120.976562 248.398438 121.199219 247.050781 121.648438 C 245.550781 122.25 244.050781 124.199219 242.699219 124.273438 C 241.574219 124.351562 240.074219 123.523438 239.476562 122.773438 C 238.949219 122.175781 238.949219 121.351562 238.800781 120.375 C 238.574219 118.949219 237.75 116.25 238.574219 114.75 C 239.398438 113.101562 242.773438 112.949219 244.273438 111.148438 C 245.925781 109.199219 245.773438 104.101562 247.5 103.050781 C 248.699219 102.226562 251.101562 102.375 252 103.273438 C 253.351562 104.625 252.824219 109.800781 252.300781 112.351562 C 252 114.226562 250.5 115.273438 250.273438 117.148438 C 250.050781 119.398438 252 123.300781 251.699219 125.023438 C 251.550781 125.925781 251.101562 126.601562 250.574219 126.898438 C 250.050781 127.273438 248.925781 127.351562 248.324219 127.125 C 247.726562 126.824219 247.273438 126.300781 246.976562 125.398438 C 246.148438 123.074219 246.601562 114.675781 246.824219 112.050781 C 246.976562 110.851562 246.824219 109.800781 247.351562 109.5 C 247.949219 109.199219 249.976562 109.949219 250.574219 110.925781 C 251.476562 112.5 250.273438 117.523438 249.449219 119.398438 C 249 120.523438 248.25 121.726562 247.5 121.726562 C 246.601562 121.800781 245.476562 119.023438 244.425781 118.800781 C 243.523438 118.574219 242.476562 119.773438 241.648438 119.550781 C 240.824219 119.398438 239.851562 118.351562 239.625 117.675781 C 239.398438 117.148438 239.550781 116.476562 239.851562 115.949219 C 240.226562 115.351562 241.5 115.273438 242.175781 114.523438 C 243.148438 113.476562 243.601562 110.476562 244.648438 109.875 C 245.398438 109.425781 246.675781 109.574219 247.273438 110.023438 C 247.800781 110.476562 248.023438 112.5 248.023438 112.5 " clip-rule="nonzero"></path></clipPath><clipPath id="ab4f5a23fd"><path d="M 0 0 L 252 0 L 252 123.816406 L 0 123.816406 Z M 0 0 " clip-rule="nonzero"></path></clipPath><image x="0" y="0" width="1520" id="126d57328e" height="630" preserveAspectRatio="xMidYMid meet"></image></defs><rect x="-25.2" width="302.4" fill="#ffffff" y="-14.4" height="172.799997" fill-opacity="1"></rect><rect x="-25.2" width="302.4" fill="#ffffff" y="-14.4" height="172.799997" fill-opacity="1"></rect><g clip-path="url(#f2ab706003)"><g clip-path="url(#51a644a0a1)"><path fill="#ffffff" d="M 233.101562 100.050781 L 258.523438 100.050781 L 258.523438 147.621094 L 233.101562 147.621094 Z M 233.101562 100.050781 " fill-opacity="1" fill-rule="nonzero"></path></g></g><g clip-path="url(#ab4f5a23fd)"><g transform="matrix(0.211678, 0, 0, 0.211905, -5.728885, -9.682365)"><image x="0" y="0" width="1520" height="630" preserveAspectRatio="xMidYMid meet"></image></g></g></svg>