<?xml version="1.0" encoding="UTF-8"?> <svg xmlns="http://www.w3.org/2000/svg" xmlns:svg="http://www.w3.org/2000/svg" width="100" height="100" version="1.1" xml:space="preserve"> <desc>Created with Fabric.js 5.2.4</desc> <g class="layer"> <title>Layer 1</title> <g id="5f4b2472-ba05-4f25-8fe2-4a6c375f41db" transform="translate(0 -1) translate(-12 -6) translate(-476 -480) matrix(1 0 0 1 540 540)"></g> <g id="svg_2" transform="translate(0 -1) translate(-12 -6) translate(-476 -480) translate(493 587) matrix(1 0 0 0.957447 47 -45)"> <rect fill="rgb(255,255,255)" fill-rule="evenodd" height="92" id="svg_3" opacity="0" stroke-dashoffset="0" stroke-miterlimit="4" width="92" x="-46" y="-46"></rect> </g> <g id="svg_4" transform="translate(0 -1) translate(-12 -6) translate(-476 -480) matrix(1 0 0 1 551.08 540.13)"> <path d="m57.73,0l-22.08,0l0,54.26c3.4,-1.82 6.26,-3.23 8.81,-4.47c11.35,-5.56 13.4,-6.56 13.92,-21.46c0.12,-3.41 0.13,-7.5 0.13,-11.43l0,-16.12c0,-0.43 -0.35,-0.78 -0.78,-0.78" fill="rgb(90,203,240)" fill-rule="evenodd" id="svg_5" stroke-dashoffset="0" stroke-miterlimit="4" transform=" translate(-47.08, -27.13)"></path> </g> <g id="svg_6" transform="translate(0 -1) translate(-12 -6) translate(-476 -480) matrix(1 0 0 1 528.21 540.13)"> <path d="m13.56,0c-0.43,0 -0.78,0.35 -0.78,0.78l0,16.12c0,3.91 0.02,8 0.13,11.43c0.52,14.9 2.57,15.9 13.92,21.46c2.55,1.24 5.42,2.65 8.82,4.47l0,-54.26l-22.09,0z" fill="rgb(19,181,234)" fill-rule="evenodd" id="svg_7" stroke-dashoffset="0" stroke-miterlimit="4" transform=" translate(-24.21, -27.13)"></path> </g> <g id="svg_8" transform="translate(0 -1) translate(-12 -6) translate(-476 -480) matrix(1 0 0 1 539.64 536.28)"> <path d="m35.65,37.66c-7.96,0 -14.44,-6.45 -14.44,-14.38c0,-7.93 6.48,-14.38 14.44,-14.38c7.96,0 14.43,6.45 14.43,14.38c0,7.93 -6.47,14.38 -14.43,14.38" fill="rgb(255,255,255)" fill-rule="evenodd" id="svg_9" stroke-dashoffset="0" stroke-miterlimit="4" transform=" translate(-35.65, -23.28)"></path> </g> <g id="svg_10" transform="translate(0 -1) translate(-12 -6) translate(-476 -480) matrix(1 0 0 1 539.65 536.28)"> <path d="m35.65,7.27c-8.86,0 -16.07,7.18 -16.07,16.01c0,8.83 7.21,16.01 16.07,16.01c8.86,0 16.06,-7.18 16.06,-16.01c0,-8.83 -7.2,-16.01 -16.06,-16.01m0,3.26c7.07,0 12.8,5.7 12.8,12.75c0,7.04 -5.73,12.75 -12.8,12.75c-7.07,0 -12.8,-5.71 -12.8,-12.75c0,-7.05 5.73,-12.75 12.8,-12.75" fill="rgb(255,255,255)" fill-rule="evenodd" id="svg_11" stroke-dashoffset="0" stroke-miterlimit="4" transform=" translate(-35.65, -23.28)"></path> </g> <g id="svg_12" transform="translate(0 -1) translate(-12 -6) matrix(1 0 0 1 63.65 56.27)"> <path d="m40.7,29.84c-0.46,0 -0.9,-0.18 -1.24,-0.51l-3.81,-3.66l-3.85,3.69c-0.34,0.31 -0.76,0.48 -1.21,0.48c-0.96,0 -1.74,-0.76 -1.74,-1.7c0,-0.48 0.19,-0.92 0.55,-1.24l3.76,-3.62l-3.79,-3.64c-0.33,-0.32 -0.52,-0.76 -0.52,-1.22c0,-0.94 0.78,-1.71 1.74,-1.71c0.45,0 0.88,0.17 1.21,0.48l3.85,3.69l3.83,-3.67c0.33,-0.32 0.76,-0.5 1.22,-0.5c0.96,0 1.75,0.77 1.75,1.71c0,0.46 -0.19,0.9 -0.53,1.22l-3.78,3.64l3.79,3.64c0.33,0.33 0.52,0.76 0.52,1.22c0,0.94 -0.79,1.7 -1.75,1.7" fill="rgb(19,181,234)" fill-rule="evenodd" id="svg_13" stroke-dashoffset="0" stroke-miterlimit="4" transform=" translate(-35.65, -23.28)"></path> </g> <g id="svg_14" transform="translate(0 -1) translate(-12 -6) translate(-476 -480) matrix(1 0 0 1 513.41 554.61)"> <path d="m10.57,0.31l-9.76,3.54c-0.36,0.13 -0.64,0.42 -0.75,0.79c-0.12,0.36 -0.06,0.76 0.17,1.07l4.77,6.69l0.84,8.7c0.04,0.38 0.25,0.72 0.57,0.92c0.2,0.12 0.43,0.19 0.65,0.19c0.15,0 0.29,-0.03 0.42,-0.08l11.35,-4.11c-5.63,-3.41 -7.67,-7.02 -8.26,-17.71" fill="rgb(19,181,234)" fill-rule="evenodd" id="svg_15" stroke-dashoffset="0" stroke-miterlimit="4" transform=" translate(-9.41, -11.26)"></path> </g> <g id="svg_16" transform="translate(0 -1) translate(-12 -6) translate(-476 -480) matrix(1 0 0 1 565.71 554.93)"> <path d="m71.24,35.31c-0.12,-0.36 -0.39,-0.65 -0.75,-0.78l-9.78,-3.55c-0.63,10.65 -2.75,14.15 -8.58,17.59l11.68,4.24c0.14,0.05 0.28,0.07 0.42,0.07c0.23,0 0.45,-0.06 0.65,-0.19c0.32,-0.2 0.53,-0.54 0.57,-0.91l0.85,-8.71l4.77,-6.69c0.22,-0.31 0.28,-0.71 0.17,-1.07" fill="rgb(19,181,234)" fill-rule="evenodd" id="svg_17" stroke-dashoffset="0" stroke-miterlimit="4" transform=" translate(-61.71, -41.93)"></path> </g> </g> </svg>